<svg xmlns="http://www.w3.org/2000/svg" viewBox="0 0 432.46 394.94"><defs><style>.cls-1{fill:#326ce5;}</style></defs><title>Asset 6</title><g id="Layer_2" data-name="Layer 2"><g id="Layer_1-2" data-name="Layer 1"><path class="cls-1" d="M422.42,282.06,352.19,159.4,281.11,37.3a75.08,75.08,0,0,0-129.76,0L80.23,159.46,10,282.06A75.07,75.07,0,0,0,74.92,394.44l141.34.5,141.28-.5a75.08,75.08,0,0,0,64.88-112.38ZM405,346.9a54.54,54.54,0,0,1-47.5,27.54l-141.2.5L75,374.44A55.08,55.08,0,0,1,27.39,292L97.56,169.46,168.63,47.37a55.08,55.08,0,0,1,95.2,0l71,122L405.06,292A54.5,54.5,0,0,1,405,346.9Z"/><path class="cls-1" d="M321.35,219.44a4,4,0,0,0-5.53-.62A160.77,160.77,0,0,1,280,240.05l-47.76-131,0-.12h-.16a17,17,0,0,0-6.92-20.64V81.08a4,4,0,0,0-4-4h-10a4,4,0,0,0-4,4v7.19a17,17,0,0,0-7,20.67h-.11l0,.12-47.76,131a160.7,160.7,0,0,1-35.78-21.23,4,4,0,0,0-5.53.62l-6.37,7.71a4,4,0,0,0,.63,5.71A178.86,178.86,0,0,0,146.25,257l-23.11,63.37a4,4,0,0,0,3.76,5.37h23.57a4,4,0,0,0,3.76-2.63l20.68-56.72A178.69,178.69,0,0,0,207.22,271v8.24a4,4,0,0,0,4,4h10a4,4,0,0,0,4-4V271a179,179,0,0,0,32.33-4.61l20.68,56.72a4,4,0,0,0,3.75,2.63h23.58a4,4,0,0,0,3.75-5.37L286.21,257a179.08,179.08,0,0,0,40.88-24.13,4,4,0,0,0,.62-5.71ZM208.61,96.17l7.62-3.67,7.62,3.67,1.88,8.24L220.46,111H212l-5.27-6.61ZM225.21,253v-6.05a4,4,0,0,0-4-4h-10a4,4,0,0,0-4,4v6a161.9,161.9,0,0,1-26.09-3.63l31.35-86a4,4,0,0,1,7.52,0l31.34,86A162.11,162.11,0,0,1,225.21,253Z"/></g></g></svg>